<svg xmlns="http://www.w3.org/2000/svg" xml:space="preserve" style="enable-background:new 0 0 1400 980" viewBox="0 0 1400 980"><style>.st1{fill:#6b3d44}.st2{fill:#9b616c}.st5{fill:#44272e}.st6{fill:#935460}.st11{fill:#ad8f64}</style><path id="Background" d="M-.5-.5v981h1401V-.5H-.5z" style="fill:#fff0"/><g id="object"><circle cx="1030.4" cy="533.6" r="18.3" class="st1"/><circle cx="1035" cy="525.7" r="8.2" class="st2"/><circle cx="850.8" cy="179.4" r="18.3" class="st1"/><circle cx="855.4" cy="171.6" r="8.2" class="st2"/><path d="M217.9 731.1c-27.1-24-45.9-59-44.4-95.2 1.2-30 15.8-57.5 27.3-85.2 14.2-34.4 24.1-70.6 29.3-107.4 6.7-47.7 5.6-96.2 14-143.6 8.4-47.4 28.1-95.5 66.8-124 61.7-45.6 148.2-28.1 222.8-46.2 43.5-10.6 82.9-33.4 124.4-50.3s88.4-27.8 130.7-13.3c32.6 11.1 58.7 35.8 89.6 51 37.9 18.6 81.1 22.1 121.9 32.7s83.1 31.9 99.5 70.7c17.5 41.4.4 88.8 3.4 133.7 4.1 61.5 44.9 113.2 75.6 166.7 30.7 53.5 51.3 123.5 16.3 174.2-18.8 27.2-50.4 43.1-82.5 51.4-32 8.3-65.3 10.2-97.9 16-83.2 14.7-159.7 54-240 80.1-75.4 24.5-155.4 37.3-234.4 29.9-63.2-6-126.4-25.4-179.9-59.9-19.4-12.5-35.3-27.4-56.5-36.7-30.9-13.7-60.2-21.7-86-44.6z" style="fill:#0bab64"/><path d="M424.3 708.7c-8.4 6.4-170.8 26.3-246.9 35.3-13.7 1.6-18.3 19.3-7.1 27.3l271 195.5 824.9-158.2c15.1-2.9 18.9-22.7 6-31L979.1 590.2 424.3 708.7z" style="fill:#30c561"/><path d="M772.1 629.9 1153 811.5c4.8 2.7 10.9 1.3 14-3.2 3.2-4.7 2.2-11-2.3-14.5l-52.5-40.4c-1.3-1-2.6-1.8-4-2.6L983.7 662s-2.9-1.8 0-4.7 83.3 34.6 83.3 34.6v-9.5l-79.5-83s-152.6-82.5-152-87.5c.7-5-63.4 118-63.4 118z" class="st1"/><path d="M1164.7 793.9S925.4 687.6 786 624.9c-8.4 3.1-13.9 5.2-13.9 5.2L1153 811.6c4.8 2.7 10.9 1.3 14-3.2 2.4-3.5 2.5-8.1.3-11.5l-2.6-3z" class="st5"/><path d="m1196.7 381.7-228.1-122L552.5 510s-93.1 62.2-119.7 78.6C406.2 605 326.6 695.4 283.4 710.2v24.6l73.5 65.7s161-144.4 175.8-145.3c14.8-.9 42.7 4.4 29.6 31.3-11 22.5-114 112.3-147.5 141.1-6.7 5.7-10.5 14.1-10.5 22.9 0 7.9 3.4 15.4 9.2 20.7l54.6 49.2h28.6S655.3 784 665.4 774.2c10.1-9.9 225.6-138 225.6-138l42.2-30.5L1199.9 401l-3.2-19.3z" class="st1"/><path d="M663.7 703.4c6 .3 11.9-2 17.5-4.2 84.9-33.5 169.8-67 254.7-100.4L641.2 456.6 552.5 510s-44.9 30-81.3 53.8C530 599.9 587.7 638 636.4 686.6c7.7 7.8 16.3 16.3 27.3 16.8z" class="st5"/><path d="M580.1 664.2c.6-17-27.6-28-43.5-28.9-16-1-184.7 143.7-184.7 143.7l-68.5-68.8v24.6l73.5 65.7s161-144.4 175.8-145.3c14.8-.9 42.7 4.4 29.6 31.3-2.3 4.7-8.6 12.3-17.4 21.7 0 .1 34.6-27 35.2-44zM668.3 746.4l-197 174.2h25.6s158.6-136.4 168.7-146.2c10.1-9.9 225.6-138 225.6-138l42.2-30.5L1199.9 401l-3.2-19.2-309 236.1-219.4 128.5z" class="st6"/><path d="M304.5 381.7v38.2l293.9 170.3 247.9 52 22.8-13.4z" class="st1"/><path d="m1181.7 812.9-17-19" class="st5"/><path d="M315.4 355h-32v13.7l324.1 200.8L840.3 630l47.5-12.1 294-262.9v-11.9L800.1 209.8S518.8 381.7 514 380.5c-4.9-1.2-198.6-25.5-198.6-25.5z" style="fill:#8681bd"/><path d="M629.7 545.1c-1.4.8 209.2 60.7 209.2 60.7l-8.1-21.9-76.6-50.1c.1-.1-91.1-6.3-124.5 11.3z" style="fill:#c6a46d"/><path d="m884.1 605.8-45.6 12.1-219.4-59.3L283.4 355v13.7l324.1 200.8L840.3 630l47.4-12.1 294-262.9v-11.9z" style="fill:#a3a1e2"/><path d="m288.6 346.9 330.5 211.7s133.5-66.8 219.8 47.2l40.7-11.4s130.3-249.1 293.1-247.5v-29.3l-337-135.1s-211.3 28.4-250.4 155.4c0 0-166.5-101.7-296.7 9z" style="fill:#fce0ad"/><path d="M337.3 345.2c.4-.1 39.5-14 92.5-19.4 41.7-4.3 99.6-3.9 153.1 18.1-41.7-9.5-83-9-114.9-5.7-53.5 5.5-93.2 19.5-93.6 19.6-1.2.4-1.8 1.7-1.4 2.9.4 1.2 1.7 1.8 2.9 1.4.4-.1 39.6-14 92.6-19.4 37.7-3.8 88.6-3.9 137.6 12.4 1.2.7 2.4 1.3 3.5 2 .4.2.7.3 1.1.3.3 0 .6-.1.9-.2-7.8-5.8-14.2-10.4-18.7-13.7-56.6-25.9-119.1-26.5-163.6-22-53.5 5.5-93.2 19.5-93.6 19.6-1.2.4-1.8 1.7-1.4 2.9.6 1 1.9 1.6 3 1.2z" class="st11"/><path d="M499.4 355c-53.5 5.5-93.2 19.5-93.6 19.6-1.2.4-1.8 1.7-1.4 2.9.4 1.2 1.7 1.8 2.9 1.4.4-.1 39.5-14 92.5-19.4 35.1-3.6 81.6-3.9 127.3 9.2-3.3-2.5-6.5-4.9-9.5-7.1-42.8-10.4-85.4-9.9-118.2-6.6zM435.8 401.1c.4-.1 39.6-14 92.6-19.4 35.4-3.6 82.5-3.9 128.6 9.6-3.2-2.4-6.3-4.8-9.3-7.1-43.4-10.8-86.7-10.3-119.9-6.9-53.5 5.5-93.2 19.5-93.6 19.6-1.2.4-1.8 1.7-1.4 2.9.5 1.1 1.8 1.7 3 1.3z" class="st11"/><path d="M471.2 420.2c.4-.1 39.5-14 92.5-19.4 31.3-3.2 71.6-3.8 112.4 5.4-2.7-2.1-5.3-4.2-8-6.2-38.2-7.3-75.5-6.6-104.9-3.6-53.5 5.5-93.2 19.5-93.6 19.6-1.2.4-1.8 1.7-1.4 2.9.6 1.1 1.9 1.7 3 1.3zM499.9 440.2c.4-.1 39.5-14 92.5-19.4 30-3.1 68.4-3.7 107.5 4.3-2.5-2-5-4-7.4-6-36.7-6.5-72.2-5.7-100.5-2.8-53.5 5.5-93.2 19.5-93.6 19.6-1.2.4-1.8 1.7-1.4 2.9.4 1.2 1.7 1.8 2.9 1.4zM527 458.7c.4-.1 38.8-11.2 91.1-13.9 33.2-1.7 76.7-.2 120.3 12.3-2.7-2.3-5.3-4.5-8-6.8-41.1-10.4-81.4-11.6-112.7-10-52.7 2.7-91.6 14-92 14.1-1.2.3-1.9 1.6-1.5 2.8.3 1.2 1.6 1.8 2.8 1.5zM668.5 472.1c-48.7.5-82.8 11.5-83.2 11.6-1.2.4-1.8 1.6-1.4 2.8.4 1.2 1.6 1.8 2.8 1.4.3-.1 33.8-10.9 81.8-11.3 30.5-.3 71.4 3.7 114.5 20.2-2.8-2.6-5.6-5.2-8.5-7.9-39.9-13.6-77.4-17-106-16.8z" class="st11"/><path d="M821.2 535.3c-3.2-3.5-6.5-7.1-10-10.7-48.2-25.3-93.4-31.7-125.8-32-45.4-.3-76.2 11-76.5 11.1-1.2.4-1.7 1.7-1.3 2.9.4 1.2 1.7 1.7 2.9 1.3.3-.1 30.4-11.2 74.9-10.8 34.6.3 83.9 7.6 135.8 38.2z" class="st11"/><path d="M835.7 182.5s-211.3 28.4-250.4 155.4c0 0 263.1 186.7 276 259.5l.3 2.1 18-5s130.3-249.1 293.1-247.5v-29.3l-337-135.2z" style="fill:#ddbd8a"/><path d="m879.6 576.2-40.7 11.4c-86.3-114-219.8-47.2-219.8-47.2L301.3 336.9c-4.3 3.2-8.6 6.5-12.8 10.1L619 558.7s133.5-66.8 219.8 47.2l40.7-11.4s130.3-249.1 293.1-247.5v-18.2c-162.7-1.7-293 247.4-293 247.4z" style="fill:#ffebca"/><path d="M586.7 333.4c-2.9 2.7-8.9.1-5.8 2.5 81.8 61.5 158.8 129.5 230.1 203 6.1 6.3 12.3 12.7 17.3 20 22.9 32.9 20.1 76.7 14.5 116.4 3.6-5.1 8.9-6.8 10.9-12.7 2.6 7.7 3.4 16 2.3 24.1 7.9-32.9 10.3-67.6 1.9-100.4.4.5-39.1-55.4-67.5-89-46.4-55.1-203.7-163.9-203.7-163.9z" style="fill:#ec5946"/><path d="M629.7 345.4c-.3 0-.7-.1-1-.2-1.1-.5-1.6-1.9-1-3 .4-.9 10.6-21.6 43.1-48.6 29.8-24.8 84.9-59.9 178.1-85.8 1.2-.3 2.4.4 2.8 1.6.3 1.2-.4 2.4-1.6 2.8-50.9 14.2-122.8 40.4-176.1 84.7-31.9 26.5-42.1 47.2-42.2 47.4-.4.6-1.2 1.1-2.1 1.1zM665.6 367.9c-.4 0-.7-.1-1.1-.3-1.1-.6-1.5-1.9-.9-3 .5-.9 12.2-22.1 46.1-49.8 31.2-25.4 88-61.1 181.2-87 1.2-.3 2.4.4 2.8 1.6.3 1.2-.4 2.4-1.6 2.8-92.3 25.7-148.4 60.9-179.3 86-33.4 27.1-45.2 48.4-45.3 48.7-.3.6-1.1 1-1.9 1zM709.2 401c-.3 0-.5 0-.8-.1-1.2-.4-1.8-1.7-1.3-2.9.4-1 9.4-25 41.8-55.8 29.8-28.2 85.8-67.6 183.9-94.9 1.2-.3 2.4.4 2.8 1.6.3 1.2-.4 2.4-1.6 2.8-53.6 14.9-128.7 43.3-182 93.8-31.7 30-40.6 53.8-40.7 54.1-.3.8-1.2 1.4-2.1 1.4z" class="st11"/><path d="M747.6 429.2h-.3c-1.2-.1-2.1-1.3-2-2.5.1-1.1 3.7-28.4 33-63.1 26.9-31.8 81.6-76 189.6-106 1.2-.3 2.4.4 2.8 1.6.3 1.2-.4 2.4-1.6 2.8-59 16.4-139.4 47.9-187.4 104.6-28.5 33.7-31.9 60.5-32 60.7-.1 1.1-1 1.9-2.1 1.9z" class="st11"/><path d="M781.7 457.2h-.2c-1.2-.1-2.1-1.2-2-2.4.1-1.3 3.1-32.8 32-71.8 47.9-64.9 129.1-98.3 188.7-114.9 1.2-.3 2.4.4 2.8 1.6.3 1.2-.4 2.4-1.6 2.8-58.9 16.4-138.9 49.3-186.1 113-28.2 38-31.3 69.5-31.3 69.8-.2 1-1.2 1.9-2.3 1.9z" class="st11"/><path d="M817.9 485.8c-.5 0-.9-.1-1.3-.4-.8-.5-2.9-1.9.6-18 5.6-25.5 42.6-154.1 226.2-181 1.2-.2 2.4.7 2.5 1.9s-.7 2.4-1.9 2.5c-109.2 16-165.2 68.8-192.9 110.4-26.3 39.3-31.9 74.9-31.5 80.8.1.1.1.1.1.2.7 1 .5 2.4-.5 3.1-.3.4-.8.5-1.3.5z" class="st11"/><path d="M849.3 518.3c-.4 0-.9-.1-1.3-.4-1-.6-2.4-1.6.4-14.4 3.8-17.5 42.8-171.6 236.7-200 1.2-.2 2.4.7 2.5 1.9.2 1.2-.7 2.4-1.9 2.5-105.1 15.4-163.2 69.1-193.4 111.4-32.2 45-41.3 88.6-41.1 95.3.7 1 .5 2.4-.5 3.1-.4.5-.9.6-1.4.6z" class="st11"/><path d="M871.6 540.1c-.4 0-.9-.1-1.3-.4-1.4-.9-1.5-2.6-.4-7.6 4-18.3 21.2-64.4 58-108.2 49-58.4 114.7-94 195.1-105.8 1.2-.2 2.4.7 2.5 1.9.2 1.2-.7 2.4-1.9 2.5-105.3 15.4-167.5 71.1-201.1 115.2-35.6 46.6-48.5 91.9-48.9 98.9.6 1 .3 2.3-.6 2.9-.4.5-.9.6-1.4.6z" class="st11"/><circle cx="796.9" cy="224.2" r="18.3" class="st1"/><circle cx="801.5" cy="216.4" r="8.2" class="st2"/><circle cx="819.9" cy="173.1" r="18.3" class="st1"/><circle cx="824.5" cy="165.3" r="8.2" class="st2"/><circle cx="793.3" cy="191.5" r="18.3" class="st1"/><circle cx="797.9" cy="183.6" r="8.2" class="st2"/><circle cx="819.9" cy="251.2" r="18.3" class="st1"/><circle cx="824.5" cy="243.3" r="8.2" class="st2"/><circle cx="842.8" cy="277.8" r="18.3" class="st1"/><circle cx="847.4" cy="269.9" r="8.2" class="st2"/><circle cx="858.1" cy="308.7" r="18.3" class="st1"/><circle cx="862.7" cy="300.8" r="8.2" class="st2"/><circle cx="869.1" cy="341.4" r="18.3" class="st1"/><circle cx="873.8" cy="333.6" r="8.2" class="st2"/><circle cx="873.8" cy="376.2" r="18.3" class="st1"/><circle cx="878.4" cy="368.3" r="8.2" class="st2"/><circle cx="876.4" cy="412.5" r="18.3" class="st1"/><circle cx="881" cy="404.7" r="8.2" class="st2"/><circle cx="879" cy="448.9" r="18.3" class="st1"/><circle cx="883.6" cy="441" r="8.2" class="st2"/><circle cx="881.6" cy="485.2" r="18.3" class="st1"/><circle cx="886.2" cy="477.4" r="8.2" class="st2"/><circle cx="887.5" cy="516.6" r="18.3" class="st1"/><circle cx="892.1" cy="508.8" r="8.2" class="st2"/><circle cx="889.2" cy="551.9" r="18.3" class="st1"/><circle cx="893.9" cy="544.1" r="8.2" class="st2"/><circle cx="894.7" cy="588.5" r="18.3" class="st1"/><circle cx="899.4" cy="580.6" r="8.2" class="st2"/><circle cx="1024.9" cy="570.1" r="18.3" class="st1"/><circle cx="1029.6" cy="562.3" r="8.2" class="st2"/><circle cx="909.5" cy="623.1" r="18.3" class="st5"/><circle cx="914.1" cy="615.3" r="8.2" class="st1"/><circle cx="927" cy="656.9" r="18.3" class="st5"/><circle cx="931.6" cy="649" r="8.2" class="st1"/><circle cx="963.7" cy="656.9" r="18.3" class="st5"/><circle cx="968.3" cy="649" r="8.2" class="st1"/><circle cx="997.4" cy="638.6" r="18.3" class="st5"/><circle cx="1002" cy="630.7" r="8.2" class="st1"/><circle cx="1012.1" cy="604.8" r="18.3" class="st5"/><circle cx="1016.7" cy="596.9" r="8.2" class="st1"/></g></svg>