<svg xmlns="http://www.w3.org/2000/svg" xmlns:xlink="http://www.w3.org/1999/xlink" width="800" height="800" viewBox="0 0 73 73"><defs><rect id="a" width="69" height="69" x="0" y="0" rx="14"/></defs><g fill="none" fill-rule="evenodd" transform="translate(2 2)"><rect width="71" height="71" x="-1" y="-1" fill="#FFF" fill-rule="nonzero" stroke="#54423C" stroke-width="2" rx="14"/><mask id="b" fill="#fff"><use xlink:href="#a"/></mask><rect width="71" height="71" x="-1" y="-1" stroke="#54423C" stroke-width="2" rx="14"/><g fill-rule="nonzero" mask="url(#b)"><path fill="#8C614B" d="M39.942 39.092c-.379-.858-1.29-1.26-2.159-1.26h-6.377c-1.214 0-2.049.678-2.33 1.554-1.94 4.469-8.26 17.692-19.035 27.815h49.063C45.914 54.81 39.17 37.344 39.942 39.09Z"/><path fill="#725346" d="M33.445 39.22c.08-.415.406-1.044.952-1.388h-2.991c-1.214 0-2.049.678-2.33 1.554-1.94 4.469-8.26 17.692-19.035 27.815h9.014c8.305-10.625 12.937-23.498 14.39-27.981Z"/><g fill="#54423C"><path d="M48.757 68.037c-5.084-4.135-8.48-10.957-8.622-11.245a.92.92 0 0 1 1.65-.813c.04.082 3.37 6.758 8.133 10.63a.92.92 0 1 1-1.16 1.428ZM19.024 67.372a.92.92 0 0 1-.162-1.291c2.483-3.196 4.032-6.314 4.047-6.345a.92.92 0 0 1 1.65.813c-.065.134-1.642 3.31-4.245 6.66a.92.92 0 0 1-1.29.163ZM26.728 67.203a.92.92 0 0 1-.31-1.264c3.022-4.981 4.687-9.845 4.704-9.893a.92.92 0 0 1 1.742.59c-.07.206-1.747 5.105-4.872 10.257a.92.92 0 0 1-1.264.31Z"/></g><path fill="#FF5E48" d="M29.076 39.386a89.543 89.543 0 0 1-3.041 6.274.612.612 0 0 0 .862.623l4.85-2.216c2.688 2.751 2.57 2.719 2.914 2.719.344 0 .226.033 2.914-2.72l4.5 1.867a.612.612 0 0 0 .843-.634 87.63 87.63 0 0 1-2.976-6.205c-.442-.885-1.271-1.262-2.159-1.262h-6.377c-1.214 0-2.049.678-2.33 1.554Z"/><path fill="#CE4542" d="M26.035 45.66a.612.612 0 0 0 .863.623l4.818-2.202a97.342 97.342 0 0 0 1.73-4.861c.08-.415.405-1.044.95-1.388h-2.99c-1.214 0-2.049.678-2.33 1.554a90.887 90.887 0 0 1-3.041 6.274Z"/><path fill="#95B737" d="M65.047 69.398c0 .813-.659 1.472-1.472 1.472H5.57a1.472 1.472 0 0 1-1.471-1.472v-.971c0-.813.658-1.472 1.471-1.472h58.006c.813 0 1.472.66 1.472 1.472v.97Z"/><g fill="#FF9C01"><path d="M27.211 19.597a4.44 4.44 0 0 0-4.435 4.436.92.92 0 1 0 1.84 0 2.599 2.599 0 0 1 2.595-2.596 2.599 2.599 0 0 1 2.596 2.596v10.184a.92.92 0 1 0 1.84 0V24.033a4.44 4.44 0 0 0-4.436-4.436ZM45.449 26.418a.92.92 0 0 0 .92-.92 4.44 4.44 0 0 0-4.436-4.436 4.44 4.44 0 0 0-4.435 4.436v8.719a.92.92 0 1 0 1.84 0v-8.72a2.599 2.599 0 0 1 2.595-2.595 2.599 2.599 0 0 1 2.596 2.596c0 .508.412.92.92.92Z"/><path d="M40.675 13.436a.92.92 0 1 0 1.84 0A4.44 4.44 0 0 0 38.08 9a4.44 4.44 0 0 0-4.436 4.436v20.78a.92.92 0 1 0 1.84 0v-20.78a2.599 2.599 0 0 1 2.596-2.596 2.599 2.599 0 0 1 2.595 2.596Z"/></g><g fill="#F7CE4D"><path d="M23.696 26.665a.92.92 0 0 0-.92.92v.338a.92.92 0 1 0 1.84 0v-.338a.92.92 0 0 0-.92-.92ZM45.449 28.073a.92.92 0 0 0-.92.92v.338a.92.92 0 1 0 1.84 0v-.338a.92.92 0 0 0-.92-.92Z"/></g></g></g></svg>